<svg width="31" height="32" viewBox="0 0 31 32" fill="none" xmlns="http://www.w3.org/2000/svg">
<path d="M9 31C10.6569 31 12 29.6569 12 28C12 26.3431 10.6569 25 9 25C7.34315 25 6 26.3431 6 28C6 29.6569 7.34315 31 9 31Z" stroke="#133788" stroke-width="2" stroke-miterlimit="10" stroke-linecap="square"/>
<path d="M26 31C27.6569 31 29 29.6569 29 28C29 26.3431 27.6569 25 26 25C24.3431 25 23 26.3431 23 28C23 29.6569 24.3431 31 26 31Z" stroke="#133788" stroke-width="2" stroke-miterlimit="10" stroke-linecap="square"/>
<path d="M4.8 6H29L27 21H7L4 1H0" stroke="#133788" stroke-width="2" stroke-miterlimit="10"/>
</svg>
